<svg width="120" height="120" viewBox="0 0 120 120" fill="none" xmlns="http://www.w3.org/2000/svg">
<g clip-path="url(#clip0_58_2)">
<path d="M22.8079 95.3525C17.7765 95.3525 13.6851 99.4453 13.6851 104.475C13.6851 109.506 17.7765 113.598 22.8079 113.598C27.8393 113.598 31.9308 109.506 31.9308 104.475C31.9308 99.4453 27.8393 95.3525 22.8079 95.3525ZM22.8079 109.037C20.2932 109.037 18.2465 106.991 18.2465 104.475C18.2465 101.96 20.2932 99.914 22.8079 99.914C25.3227 99.914 27.3694 101.96 27.3694 104.475C27.3694 106.991 25.3227 109.037 22.8079 109.037Z" fill="#FFC700"/>
<path d="M79.8275 95.3525C74.796 95.3525 70.7046 99.4453 70.7046 104.475C70.7046 109.506 74.796 113.598 79.8275 113.598C84.8589 113.598 88.9503 109.506 88.9503 104.475C88.9503 99.4453 84.8589 95.3525 79.8275 95.3525ZM79.8275 109.037C77.3127 109.037 75.266 106.991 75.266 104.475C75.266 101.96 77.3127 99.914 79.8275 99.914C82.3422 99.914 84.3889 101.96 84.3889 104.475C84.3889 106.991 82.3415 109.037 79.8275 109.037Z" fill="#FFC700"/>
<path d="M117.718 22.3677H101.71C100.55 22.3677 99.5744 23.2394 99.4431 24.3934L98.6449 31.4906H79.7119C78.5468 17.4649 66.7805 6.40234 52.4582 6.40234C38.1359 6.40234 26.3696 17.4656 25.2045 31.4906H2.28114C1.63326 31.4906 1.0136 31.7669 0.581679 32.25C0.149758 32.7331 -0.0576695 33.3784 0.0138798 34.023L4.57531 75.0765C4.69544 76.1445 5.54221 76.9841 6.61086 77.0937L93.5117 86.0065V88.6565H9.74721C8.48689 88.6565 7.46617 89.6779 7.46617 90.9375C7.46617 92.1972 8.48624 93.2186 9.74721 93.2186H95.7928C97.0531 93.2186 98.0738 92.1972 98.0738 90.9375V84.0563L102.137 39.3616C102.296 39.0925 102.415 38.7978 102.453 38.4676L103.749 26.9291H117.719C118.979 26.9291 120 25.9077 120 24.6481C119.999 23.3891 118.979 22.3677 117.718 22.3677ZM52.4582 10.9638C65.0338 10.9638 75.266 21.1947 75.266 33.7716C75.266 46.3485 65.0338 56.5794 52.4582 56.5794C39.8826 56.5794 29.6504 46.3485 29.6504 33.7716C29.6504 21.1947 39.8826 10.9638 52.4582 10.9638ZM93.7297 81.4444L8.90503 72.7443L4.82934 36.0526H25.2045C26.3696 50.0783 38.1359 61.1408 52.4582 61.1408C66.7805 61.1408 78.5468 50.0776 79.7119 36.0526H97.8572L93.7297 81.4444Z" fill="#FFC700"/>
<path d="M41.9764 46.0633C42.5599 46.0633 43.1435 45.8407 43.5892 45.395L52.2224 36.7606L60.5208 45.0603C60.9665 45.506 61.55 45.7285 62.1336 45.7285C62.7171 45.7285 63.3007 45.506 63.7464 45.0603C64.6371 44.1695 64.6371 42.7261 63.7464 41.8353L55.4473 33.5349L62.9397 26.0419C63.8304 25.1512 63.8304 23.7077 62.9397 22.817C62.0489 21.9262 60.6054 21.9262 59.7147 22.817L52.2224 30.31L44.3946 22.4815C43.5038 21.5908 42.0604 21.5908 41.1696 22.4815C40.2789 23.3723 40.2789 24.8158 41.1696 25.7065L48.9967 33.5349L40.3629 42.1701C39.4721 43.0608 39.4721 44.5043 40.3629 45.395C40.8093 45.8407 41.3928 46.0633 41.9764 46.0633Z" fill="#FFC700"/>
</g>
<defs>
<clipPath id="clip0_58_2">
<rect width="120" height="120" fill="white"/>
</clipPath>
</defs>
</svg>
