<svg width="144" height="64" viewBox="0 0 144 64" fill="none" xmlns="http://www.w3.org/2000/svg">
<g clip-path="url(#clip0_4_15)">
<path d="M24.3491 27.1038L27.2253 32.7126C27.3455 32.9469 27.5676 33.0913 27.8079 33.0913C28.0482 33.0913 28.2703 32.9469 28.3905 32.7126L31.2669 27.1038C32.323 28.3254 33.7976 29.0864 35.4279 29.0864C38.6315 29.0864 41.2379 26.1523 41.2379 22.5458C41.2379 18.9392 38.6315 16.0049 35.4279 16.0049C32.2243 16.0049 29.6181 18.9391 29.6181 22.5458C29.6181 23.7333 29.9021 24.8468 30.3954 25.8079H25.2204C25.7139 24.8468 25.9979 23.7333 25.9979 22.5458C25.9979 18.9392 23.3915 16.0049 20.1879 16.0049C16.9843 16.0049 14.3779 18.9391 14.3779 22.5458C14.3779 26.1523 16.9843 29.0864 20.1879 29.0864C21.8182 29.0864 23.2929 28.3254 24.3491 27.1038ZM35.4279 17.5197C37.8896 17.5197 39.8924 19.7744 39.8924 22.5459C39.8924 25.3173 37.8896 27.5719 35.4279 27.5719C32.9662 27.5719 30.9635 25.3173 30.9635 22.5459C30.9635 19.7743 32.9663 17.5197 35.4279 17.5197ZM29.6012 27.3225L27.8079 30.8193L26.0147 27.3225H29.6012ZM15.7234 22.5458C15.7234 19.7743 17.7262 17.5195 20.1879 17.5195C22.6497 17.5195 24.6525 19.7743 24.6525 22.5458C24.6525 25.3171 22.6497 27.5717 20.1879 27.5717C17.7262 27.5717 15.7234 25.3171 15.7234 22.5458Z" fill="black"/>
<path d="M22.4988 22.5453C22.4988 21.1106 21.462 19.9434 20.1876 19.9434C18.9132 19.9434 17.8765 21.1106 17.8765 22.5453C17.8765 23.9798 18.9133 25.1469 20.1876 25.1469C21.462 25.1469 22.4988 23.9798 22.4988 22.5453ZM19.222 22.5453C19.222 21.9458 19.6552 21.4581 20.1876 21.4581C20.7201 21.4581 21.1533 21.9458 21.1533 22.5453C21.1533 23.1446 20.7201 23.6322 20.1876 23.6322C19.6551 23.6322 19.222 23.1446 19.222 22.5453Z" fill="black"/>
<path d="M35.4278 25.1469C36.7022 25.1469 37.739 23.9798 37.739 22.5453C37.739 21.1106 36.7022 19.9434 35.4278 19.9434C34.1534 19.9434 33.1167 21.1106 33.1167 22.5453C33.1167 23.9798 34.1535 25.1469 35.4278 25.1469ZM35.4278 21.4581C35.9603 21.4581 36.3935 21.9458 36.3935 22.5453C36.3935 23.1446 35.9603 23.6322 35.4278 23.6322C34.8953 23.6322 34.4622 23.1446 34.4622 22.5453C34.4622 21.9458 34.8954 21.4581 35.4278 21.4581Z" fill="black"/>
<path d="M31.3858 46.2066C33.5167 46.2066 35.2859 44.4319 35.5896 42.1264C37.6374 41.7844 39.2139 39.7929 39.2139 37.394C39.2139 36.9757 38.9127 36.6367 38.5412 36.6367C38.1697 36.6367 37.8685 36.9757 37.8685 37.394C37.8685 39.1971 36.5651 40.6642 34.9631 40.6642C33.3614 40.6642 32.0582 39.1972 32.0582 37.394C32.0582 36.9757 31.757 36.6367 31.3855 36.6367C31.014 36.6367 30.7128 36.9757 30.7128 37.394C30.7128 39.1971 29.4095 40.6642 27.8075 40.6642C26.2057 40.6642 24.9025 39.1972 24.9025 37.394C24.9025 36.9757 24.6013 36.6367 24.2298 36.6367C23.8583 36.6367 23.5571 36.9757 23.5571 37.394C23.5571 39.1971 22.2538 40.6642 20.6518 40.6642C19.05 40.6642 17.7469 39.1972 17.7469 37.394C17.7469 36.9757 17.4456 36.6367 17.0741 36.6367C16.7027 36.6367 16.4014 36.9757 16.4014 37.394C16.4014 39.7929 17.9779 41.7847 20.0258 42.1264C20.3295 44.4319 22.0988 46.2066 24.2298 46.2066C25.7305 46.2066 27.0512 45.3258 27.8077 44C28.5644 45.3258 29.8851 46.2066 31.3858 46.2066ZM31.3856 39.9724C32.0153 41.0757 33.0358 41.8697 34.2257 42.1052C33.9456 43.5812 32.7792 44.6919 31.3858 44.6919C29.9922 44.6919 28.8257 43.5811 28.5456 42.1052C29.7355 41.8697 30.756 41.0757 31.3856 39.9724ZM24.23 44.6919C22.8365 44.6919 21.67 43.5811 21.3899 42.1052C22.5798 41.8697 23.6003 41.0757 24.23 39.9724C24.8596 41.0757 25.8801 41.8698 27.0702 42.1052C26.7899 43.5812 25.6234 44.6919 24.23 44.6919Z" fill="black"/>
<path d="M59.9581 45.6319C59.8604 45.3347 59.6087 45.1375 59.3273 45.1375H53.0858C52.9385 45.1375 52.7953 45.1919 52.6781 45.2923L44.8298 52.0242H35.3632C38.3202 50.5998 40.5122 48.1538 41.9929 44.5992C43.5474 44.3738 45.2988 42.9732 46.7656 40.7497C48.4349 38.2195 49.4748 34.9961 49.6189 31.9061C49.7774 28.5066 49.2404 26.1255 47.9773 24.6269C47.1047 23.5915 45.9223 23.0229 44.3765 22.8985V1.13444C44.3765 0.811058 44.1941 0.523273 43.9223 0.418156C43.6507 0.312887 43.3496 0.413915 43.1731 0.668832L37.0285 9.54714H18.5872L12.4425 0.668983C12.2658 0.413915 11.9647 0.312887 11.6932 0.418308C11.4214 0.523273 11.239 0.81121 11.239 1.13459V22.8988C9.69335 23.0232 8.51098 23.5918 7.63834 24.6271C6.37511 26.1258 5.83815 28.5067 5.99651 31.9064C6.1406 34.9969 7.17874 38.2202 8.84438 40.7495C10.3051 42.9677 12.0499 44.3662 13.601 44.5966C14.1074 45.8224 14.6958 46.9136 15.3685 47.8725C16.6546 49.7057 18.2633 51.0848 20.2181 52.0243H3.82054C3.61011 52.0243 3.41166 52.1352 3.28452 52.3239L0.136749 56.9968C-0.0177062 57.226 -0.043404 57.5337 0.070285 57.7914C0.183974 58.0489 0.417406 58.2117 0.672769 58.2117H47.5726L53.2288 62.9797C53.3464 63.0788 53.4881 63.1309 53.632 63.1309C53.6837 63.1309 53.7356 63.1242 53.7869 63.1106C53.9809 63.0588 54.1446 62.9129 54.2337 62.7122L56.4183 57.7931C56.5636 57.4659 56.4805 57.0687 56.2208 56.849L52.385 53.6031L59.7653 46.4693C59.979 46.263 60.0558 45.9289 59.9581 45.6319ZM16.4245 46.9336C13.8408 43.2508 12.5848 37.3643 12.5848 28.9375C12.5848 28.5191 12.2836 28.1802 11.9121 28.1802C11.5406 28.1802 11.2394 28.5191 11.2394 28.9375C11.2394 34.6247 11.8069 39.2253 12.9611 42.8379C10.5781 41.6971 7.59084 37.1996 7.34032 31.8268C7.20417 28.9057 7.63282 26.8341 8.61445 25.6696C9.34192 24.8066 10.4206 24.387 11.9121 24.387C12.2836 24.387 12.5848 24.048 12.5848 23.6297C12.5848 23.6286 12.5845 23.6277 12.5845 23.6266V3.33857L17.728 10.7702C17.8555 10.9544 18.0513 11.0621 18.2586 11.0621H37.3573C37.5648 11.0621 37.7604 10.9544 37.8879 10.7702L43.0313 3.33872V23.6291C43.0313 23.6294 43.0313 23.6295 43.0313 23.6298C43.0313 24.0482 43.3325 24.3871 43.704 24.3871C45.1954 24.3871 46.274 24.8067 47.0015 25.6698C47.9831 26.8342 48.4116 28.9058 48.2755 31.827C48.0247 37.2064 45.0265 41.7073 42.6385 42.8408C43.8117 39.2016 44.3764 34.5903 44.3764 28.9376C44.3764 28.5193 44.0752 28.1803 43.7037 28.1803C43.3322 28.1803 43.031 28.5193 43.031 28.9376C43.031 44.9744 38.5598 51.8992 28.0972 52.0243H27.5C22.3405 51.9624 18.8152 50.3411 16.4245 46.9336ZM2.02722 56.6972L4.15461 53.5388H21.7598V55.2503C21.7598 55.7758 21.8834 56.2689 22.0976 56.6972H2.02722ZM25.6764 55.2503C25.6764 56.0482 25.0997 56.6972 24.3908 56.6972C23.6819 56.6972 23.1053 56.0482 23.1053 55.2503V53.5388H25.6763V55.2503H25.6764ZM26.6841 56.6972C26.8983 56.2689 27.0218 55.7758 27.0218 55.2503V53.5388H28.5938V55.2503C28.5938 55.7758 28.7173 56.2689 28.9315 56.6972H26.6841ZM32.5101 55.2503C32.5101 56.0482 31.9333 56.6972 31.2244 56.6972C30.5156 56.6972 29.9391 56.0482 29.9391 55.2503V53.5388H32.51V55.2503H32.5101ZM50.8736 53.0678C50.719 53.2173 50.6329 53.4377 50.6395 53.667C50.6461 53.8965 50.7447 54.11 50.9077 54.2478L54.9643 57.6805L53.3907 61.2239L48.1999 56.8484C48.0835 56.7502 47.9419 56.6972 47.7966 56.6972H33.518C33.732 56.2689 33.8557 55.7758 33.8557 55.2503V53.5388H45.0569C45.2043 53.5388 45.3474 53.4845 45.4646 53.384L53.313 46.6523H57.5112L50.8736 53.0678Z" fill="black"/>
</g>
<path d="M64.0114 26V14.3636H66.4716V19.4943H66.625L70.8125 14.3636H73.7614L69.4432 19.5739L73.8125 26H70.8693L67.6818 21.2159L66.4716 22.6932V26H64.0114ZM85.0795 20.1818C85.0795 21.4508 84.839 22.5303 84.358 23.4205C83.8807 24.3106 83.2292 24.9905 82.4034 25.4602C81.5814 25.9261 80.6572 26.1591 79.6307 26.1591C78.5966 26.1591 77.6686 25.9242 76.8466 25.4545C76.0246 24.9848 75.375 24.3049 74.8977 23.4148C74.4205 22.5246 74.1818 21.447 74.1818 20.1818C74.1818 18.9129 74.4205 17.8333 74.8977 16.9432C75.375 16.053 76.0246 15.375 76.8466 14.9091C77.6686 14.4394 78.5966 14.2045 79.6307 14.2045C80.6572 14.2045 81.5814 14.4394 82.4034 14.9091C83.2292 15.375 83.8807 16.053 84.358 16.9432C84.839 17.8333 85.0795 18.9129 85.0795 20.1818ZM82.5852 20.1818C82.5852 19.3598 82.4621 18.6667 82.2159 18.1023C81.9735 17.5379 81.6307 17.1098 81.1875 16.8182C80.7443 16.5265 80.2254 16.3807 79.6307 16.3807C79.036 16.3807 78.517 16.5265 78.0739 16.8182C77.6307 17.1098 77.286 17.5379 77.0398 18.1023C76.7973 18.6667 76.6761 19.3598 76.6761 20.1818C76.6761 21.0038 76.7973 21.697 77.0398 22.2614C77.286 22.8258 77.6307 23.2538 78.0739 23.5455C78.517 23.8371 79.036 23.983 79.6307 23.983C80.2254 23.983 80.7443 23.8371 81.1875 23.5455C81.6307 23.2538 81.9735 22.8258 82.2159 22.2614C82.4621 21.697 82.5852 21.0038 82.5852 20.1818ZM97.169 18.4375H94.6804C94.6349 18.1155 94.5421 17.8295 94.402 17.5795C94.2618 17.3258 94.0819 17.1098 93.8622 16.9318C93.6425 16.7538 93.3887 16.6174 93.1009 16.5227C92.8168 16.428 92.508 16.3807 92.1747 16.3807C91.5724 16.3807 91.0478 16.5303 90.6009 16.8295C90.1539 17.125 89.8073 17.5568 89.5611 18.125C89.3149 18.6894 89.1918 19.375 89.1918 20.1818C89.1918 21.0114 89.3149 21.7083 89.5611 22.2727C89.8111 22.8371 90.1596 23.2633 90.6065 23.5511C91.0535 23.839 91.5705 23.983 92.1577 23.983C92.4872 23.983 92.7921 23.9394 93.0724 23.8523C93.3565 23.7652 93.6084 23.6383 93.8281 23.4716C94.0478 23.3011 94.2296 23.0947 94.3736 22.8523C94.5213 22.6098 94.6236 22.3333 94.6804 22.0227L97.169 22.0341C97.1046 22.5682 96.9437 23.0833 96.6861 23.5795C96.4323 24.072 96.0895 24.5133 95.6577 24.9034C95.2296 25.2898 94.7183 25.5966 94.1236 25.8239C93.5327 26.0473 92.8641 26.1591 92.1179 26.1591C91.08 26.1591 90.152 25.9242 89.3338 25.4545C88.5194 24.9848 87.8755 24.3049 87.402 23.4148C86.9323 22.5246 86.6974 21.447 86.6974 20.1818C86.6974 18.9129 86.9361 17.8333 87.4134 16.9432C87.8906 16.053 88.5384 15.375 89.3565 14.9091C90.1747 14.4394 91.0952 14.2045 92.1179 14.2045C92.7921 14.2045 93.4171 14.2992 93.9929 14.4886C94.5724 14.678 95.0857 14.9545 95.5327 15.3182C95.9796 15.678 96.3433 16.1193 96.6236 16.642C96.9077 17.1648 97.0895 17.7633 97.169 18.4375ZM109.626 20.1818C109.626 21.4508 109.386 22.5303 108.905 23.4205C108.428 24.3106 107.776 24.9905 106.95 25.4602C106.128 25.9261 105.204 26.1591 104.178 26.1591C103.143 26.1591 102.215 25.9242 101.393 25.4545C100.571 24.9848 99.9219 24.3049 99.4446 23.4148C98.9673 22.5246 98.7287 21.447 98.7287 20.1818C98.7287 18.9129 98.9673 17.8333 99.4446 16.9432C99.9219 16.053 100.571 15.375 101.393 14.9091C102.215 14.4394 103.143 14.2045 104.178 14.2045C105.204 14.2045 106.128 14.4394 106.95 14.9091C107.776 15.375 108.428 16.053 108.905 16.9432C109.386 17.8333 109.626 18.9129 109.626 20.1818ZM107.132 20.1818C107.132 19.3598 107.009 18.6667 106.763 18.1023C106.52 17.5379 106.178 17.1098 105.734 16.8182C105.291 16.5265 104.772 16.3807 104.178 16.3807C103.583 16.3807 103.064 16.5265 102.621 16.8182C102.178 17.1098 101.833 17.5379 101.587 18.1023C101.344 18.6667 101.223 19.3598 101.223 20.1818C101.223 21.0038 101.344 21.697 101.587 22.2614C101.833 22.8258 102.178 23.2538 102.621 23.5455C103.064 23.8371 103.583 23.983 104.178 23.983C104.772 23.983 105.291 23.8371 105.734 23.5455C106.178 23.2538 106.52 22.8258 106.763 22.2614C107.009 21.697 107.132 21.0038 107.132 20.1818ZM121.182 14.3636V26H119.057L113.994 18.6761H113.909V26H111.449V14.3636H113.608L118.631 21.6818H118.733V14.3636H121.182ZM122.771 16.392V14.3636H132.328V16.392H128.766V26H126.334V16.392H122.771ZM134.486 26H131.849L135.866 14.3636H139.037L143.048 26H140.412L137.497 17.0227H137.406L134.486 26ZM134.321 21.4261H140.548V23.3466H134.321V21.4261Z" fill="black"/>
<path d="M65.4513 38H63.3093L66.5732 28.5455H69.1491L72.4084 38H70.2663L67.8981 30.706H67.8242L65.4513 38ZM65.3175 34.2837H70.3771V35.8441H65.3175V34.2837ZM73.5463 38V28.5455H77.2765C77.9935 28.5455 78.6045 28.6824 79.1092 28.9563C79.6139 29.2272 79.9986 29.6042 80.2633 30.0874C80.5311 30.5675 80.665 31.1214 80.665 31.7493C80.665 32.3771 80.5295 32.9311 80.2587 33.4112C79.9879 33.8913 79.5955 34.2653 79.0815 34.533C78.5706 34.8008 77.952 34.9347 77.2257 34.9347H74.8482V33.3327H76.9025C77.2872 33.3327 77.6042 33.2666 77.8535 33.1342C78.1059 32.9988 78.2936 32.8126 78.4167 32.5756C78.5429 32.3356 78.606 32.0601 78.606 31.7493C78.606 31.4354 78.5429 31.1615 78.4167 30.9276C78.2936 30.6906 78.1059 30.5075 77.8535 30.3782C77.6011 30.2459 77.2811 30.1797 76.8933 30.1797H75.5453V38H73.5463ZM81.9633 38V28.5455H85.6934C86.4105 28.5455 87.0215 28.6824 87.5262 28.9563C88.0309 29.2272 88.4156 29.6042 88.6803 30.0874C88.9481 30.5675 89.0819 31.1214 89.0819 31.7493C89.0819 32.3771 88.9465 32.9311 88.6757 33.4112C88.4049 33.8913 88.0125 34.2653 87.4985 34.533C86.9876 34.8008 86.369 34.9347 85.6427 34.9347H83.2652V33.3327H85.3195C85.7042 33.3327 86.0212 33.2666 86.2705 33.1342C86.5229 32.9988 86.7106 32.8126 86.8337 32.5756C86.9599 32.3356 87.023 32.0601 87.023 31.7493C87.023 31.4354 86.9599 31.1615 86.8337 30.9276C86.7106 30.6906 86.5229 30.5075 86.2705 30.3782C86.0181 30.2459 85.6981 30.1797 85.3103 30.1797H83.9623V38H81.9633ZM90.3803 38V28.5455H92.3793V36.3519H96.4325V38H90.3803ZM97.7563 38V28.5455H104.127V30.1935H99.7552V32.4464H103.799V34.0945H99.7552V36.3519H104.146V38H97.7563Z" fill="black"/>
<path d="M69.3153 43.9091C69.2599 43.4413 69.0353 43.0781 68.6413 42.8196C68.2474 42.5611 67.7642 42.4318 67.1918 42.4318C66.7732 42.4318 66.407 42.4995 66.093 42.6349C65.7822 42.7704 65.5391 42.9566 65.3636 43.1935C65.1913 43.4305 65.1051 43.6998 65.1051 44.0014C65.1051 44.2538 65.1651 44.4708 65.2852 44.6523C65.4083 44.8308 65.5652 44.9801 65.756 45.1001C65.9469 45.2171 66.1469 45.314 66.3562 45.391C66.5655 45.4648 66.7578 45.5249 66.9332 45.571L67.8935 45.8295C68.1397 45.8942 68.4136 45.9834 68.7152 46.0973C69.0199 46.2112 69.3107 46.3666 69.5877 46.5636C69.8678 46.7575 70.0986 47.0067 70.2802 47.3114C70.4618 47.6161 70.5526 47.9901 70.5526 48.4332C70.5526 48.9441 70.4187 49.4058 70.1509 49.8182C69.8862 50.2306 69.4985 50.5584 68.9876 50.8015C68.4798 51.0446 67.8627 51.1662 67.1364 51.1662C66.4593 51.1662 65.873 51.0569 65.3775 50.8384C64.8851 50.6199 64.4973 50.3152 64.2141 49.9244C63.9341 49.5335 63.7756 49.0795 63.7386 48.5625H64.9205C64.9512 48.9195 65.0713 49.215 65.2805 49.4489C65.4929 49.6797 65.7607 49.852 66.0838 49.9659C66.41 50.0767 66.7609 50.1321 67.1364 50.1321C67.5734 50.1321 67.9658 50.0613 68.3136 49.9197C68.6613 49.7751 68.9368 49.575 69.1399 49.3196C69.343 49.0611 69.4446 48.7595 69.4446 48.4148C69.4446 48.1009 69.3569 47.8454 69.1815 47.6484C69.006 47.4515 68.7752 47.2914 68.489 47.1683C68.2028 47.0452 67.8935 46.9375 67.5611 46.8452L66.3977 46.5128C65.6591 46.3004 65.0743 45.9973 64.6435 45.6033C64.2126 45.2094 63.9972 44.6939 63.9972 44.0568C63.9972 43.5275 64.1403 43.0658 64.4265 42.6719C64.7158 42.2749 65.1036 41.9671 65.5898 41.7486C66.0792 41.527 66.6255 41.4162 67.2287 41.4162C67.8381 41.4162 68.3797 41.5254 68.8537 41.744C69.3277 41.9594 69.7031 42.2549 69.9801 42.6303C70.2602 43.0058 70.4079 43.4321 70.4233 43.9091H69.3153ZM71.9179 42.5611V41.5455H79.0088V42.5611H76.0358V51H74.8909V42.5611H71.9179ZM88.3595 46.2727C88.3595 47.2699 88.1794 48.1316 87.8193 48.858C87.4593 49.5843 86.9653 50.1444 86.3374 50.5384C85.7096 50.9323 84.9925 51.1293 84.1862 51.1293C83.3798 51.1293 82.6627 50.9323 82.0349 50.5384C81.407 50.1444 80.9131 49.5843 80.553 48.858C80.1929 48.1316 80.0129 47.2699 80.0129 46.2727C80.0129 45.2756 80.1929 44.4138 80.553 43.6875C80.9131 42.9612 81.407 42.401 82.0349 42.0071C82.6627 41.6132 83.3798 41.4162 84.1862 41.4162C84.9925 41.4162 85.7096 41.6132 86.3374 42.0071C86.9653 42.401 87.4593 42.9612 87.8193 43.6875C88.1794 44.4138 88.3595 45.2756 88.3595 46.2727ZM87.2515 46.2727C87.2515 45.4541 87.1146 44.7631 86.8406 44.1999C86.5698 43.6367 86.202 43.2105 85.7373 42.9212C85.2757 42.6319 84.7586 42.4872 84.1862 42.4872C83.6137 42.4872 83.0951 42.6319 82.6304 42.9212C82.1688 43.2105 81.801 43.6367 81.5271 44.1999C81.2562 44.7631 81.1208 45.4541 81.1208 46.2727C81.1208 47.0914 81.2562 47.7823 81.5271 48.3455C81.801 48.9087 82.1688 49.335 82.6304 49.6243C83.0951 49.9136 83.6137 50.0582 84.1862 50.0582C84.7586 50.0582 85.2757 49.9136 85.7373 49.6243C86.202 49.335 86.5698 48.9087 86.8406 48.3455C87.1146 47.7823 87.2515 47.0914 87.2515 46.2727ZM90.2845 51V41.5455H93.4791C94.2178 41.5455 94.8241 41.6716 95.298 41.924C95.772 42.1733 96.1228 42.5165 96.3506 42.9535C96.5783 43.3905 96.6922 43.8875 96.6922 44.4446C96.6922 45.0017 96.5783 45.4956 96.3506 45.9265C96.1228 46.3574 95.7735 46.6959 95.3026 46.9421C94.8318 47.1853 94.2301 47.3068 93.4976 47.3068H90.9124V46.2727H93.4607C93.9654 46.2727 94.3717 46.1989 94.6794 46.0511C94.9903 45.9034 95.2149 45.6941 95.3534 45.4233C95.495 45.1494 95.5658 44.8232 95.5658 44.4446C95.5658 44.0661 95.495 43.7352 95.3534 43.4521C95.2119 43.1689 94.9856 42.9504 94.6748 42.7965C94.364 42.6396 93.9531 42.5611 93.4422 42.5611H91.4294V51H90.2845ZM94.7348 46.7528L97.0615 51H95.732L93.4422 46.7528H94.7348ZM98.6 51V41.5455H104.306V42.5611H99.7449V45.7557H104.01V46.7713H99.7449V49.9844H104.38V51H98.6Z" fill="black"/>
<defs>
<clipPath id="clip0_4_15">
<rect width="60" height="64" fill="white"/>
</clipPath>
</defs>
</svg>
