<svg width="30" height="26" viewBox="0 0 30 26" fill="none" xmlns="http://www.w3.org/2000/svg">
<path d="M5.84 4.5L5.4235 2H3.9285C3.7055 1.14 2.9295 0.5 2 0.5C0.897 0.5 0 1.397 0 2.5C0 3.603 0.897 4.5 2 4.5C2.9295 4.5 3.7055 3.86 3.929 3H4.576L4.826 4.5H4.807L7.3925 17.508C6.16 17.602 5.1335 18.551 5.0125 19.745C4.9415 20.4475 5.1725 21.151 5.6465 21.674C6.121 22.1985 6.797 22.5 7.5 22.5H8.5C8.5 24.1545 9.8455 25.5 11.5 25.5C13.1545 25.5 14.5 24.1545 14.5 22.5H20C20 24.1545 21.3455 25.5 23 25.5C24.6545 25.5 26 24.1545 26 22.5H28C28.2765 22.5 28.5 22.2765 28.5 22C28.5 21.7235 28.2765 21.5 28 21.5H25.825C25.412 20.3365 24.3035 19.5 23 19.5C21.6965 19.5 20.588 20.3365 20.175 21.5H14.325C13.912 20.3365 12.8035 19.5 11.5 19.5C10.1965 19.5 9.088 20.3365 8.675 21.5H7.5C7.079 21.5 6.674 21.319 6.388 21.0035C6.0995 20.684 5.964 20.273 6.0075 19.8455C6.0835 19.091 6.7805 18.5005 7.594 18.5005H7.9895C7.9965 18.5005 8.002 18.5005 8.009 18.5005H27.506C28.8815 18.5 30 17.3815 30 16.0065V4.5H5.84ZM2 3.5C1.4485 3.5 1 3.0515 1 2.5C1 1.9485 1.4485 1.5 2 1.5C2.5515 1.5 3 1.9485 3 2.5C3 3.0515 2.5515 3.5 2 3.5ZM23 20.5C24.103 20.5 25 21.397 25 22.5C25 23.603 24.103 24.5 23 24.5C21.897 24.5 21 23.603 21 22.5C21 21.397 21.897 20.5 23 20.5ZM11.5 20.5C12.603 20.5 13.5 21.397 13.5 22.5C13.5 23.603 12.603 24.5 11.5 24.5C10.397 24.5 9.5 23.603 9.5 22.5C9.5 21.397 10.397 20.5 11.5 20.5ZM29 16.0065C29 16.83 28.33 17.5 27.5065 17.5H8.4105L6.0255 5.5H29V16.0065Z" fill="black"/>
</svg>
